<svg id="Layer_1" data-name="Layer 1" xmlns="http://www.w3.org/2000/svg" viewBox="0 0 165.41 161.88"><defs><style>.cls-1{fill:#ff9fbd;}.cls-2{fill:#f1f1f1;}.cls-3{fill:#f1d6b5;}.cls-4{fill:#ffeb71;}.cls-5{fill:#ffeb59;}.cls-6{fill:#999;}.cls-7{fill:#fec421;}</style></defs><title>pencil</title><path class="cls-1" d="M247,309.16H395a17.89,17.89,0,0,1,17.89,17.89V346.5a18.22,18.22,0,0,1-18.22,18.22H252.55a7,7,0,0,1-7-7v-47a1.49,1.49,0,0,1,1.49-1.49Z" transform="translate(-377.36 57.93) rotate(-44.1)"/><path class="cls-2" d="M250.16,318.09H374.42a15.37,15.37,0,0,1,15.37,15.37v24.81a15.37,15.37,0,0,1-15.37,15.37H250.16a0,0,0,0,1,0,0V318.09a0,0,0,0,1,0,0Z" transform="translate(-386.17 54.03) rotate(-44.1)"/><polygon class="cls-3" points="14.34 107.56 0 161.63 54.74 146.26 14.34 107.56"/><polygon class="cls-4" points="14.39 107.57 10.71 120.95 23.96 117.61 14.39 107.57"/><polygon class="cls-4" points="23.96 117.61 20.19 130.86 33.55 127.51 23.96 117.61"/><polygon class="cls-4" points="33.55 127.51 29.78 140.75 43.14 137.4 33.55 127.51"/><polygon class="cls-4" points="43.03 136.99 39.26 150.24 52.62 146.88 43.03 136.99"/><path class="cls-5" d="M253.18,325.09h105a14.15,14.15,0,0,1,14.15,14.15v27.18a14.15,14.15,0,0,1-14.15,14.15H255.81a2.63,2.63,0,0,1-2.63-2.63V325.09A0,0,0,0,1,253.18,325.09Z" transform="translate(-393.05 50.96) rotate(-44.1)"/><polygon class="cls-6" points="4.08 146.6 0.13 161.88 14.78 158.2 4.08 146.6"/><rect class="cls-7" x="263.27" y="333.56" width="81.54" height="4.17" transform="translate(-382.53 27.15) rotate(-42.46)"/><rect class="cls-7" x="274.57" y="348.29" width="81.54" height="4.17" transform="translate(-389.5 38.64) rotate(-42.46)"/><rect class="cls-7" x="287.48" y="362.4" width="81.54" height="4.17" transform="translate(-395.64 51.06) rotate(-42.46)"/></svg>